<mxfile host="app.diagrams.net" modified="2021-03-16T02:12:07.353Z" agent="5.0 (Macintosh; Intel Mac OS X 10_14_4) AppleWebKit/537.36 (KHTML, like Gecko) Chrome/89.0.4389.82 Safari/537.36" etag="NcinEA7FkSIP8WuNVB5H" version="14.4.8" type="github">
  <diagram id="0h9pSR04mzPtojHPzHxI" name="第 1 页">
    <mxGraphModel dx="736" dy="522" grid="1" gridSize="10" guides="1" tooltips="1" connect="1" arrows="1" fold="1" page="1" pageScale="1" pageWidth="827" pageHeight="1169" math="0" shadow="0">
      <root>
        <mxCell id="0" />
        <mxCell id="1" parent="0" />
        <mxCell id="OCMjePUxQbX9PJXSKdty-3" value="" style="edgeStyle=orthogonalEdgeStyle;rounded=0;orthogonalLoop=1;jettySize=auto;html=1;" edge="1" parent="1" source="OCMjePUxQbX9PJXSKdty-1" target="OCMjePUxQbX9PJXSKdty-2">
          <mxGeometry relative="1" as="geometry" />
        </mxCell>
        <mxCell id="OCMjePUxQbX9PJXSKdty-1" value="k" style="ellipse;whiteSpace=wrap;html=1;fillColor=#f5f5f5;strokeColor=#666666;fontColor=#333333;" vertex="1" parent="1">
          <mxGeometry x="70" y="410" width="120" height="80" as="geometry" />
        </mxCell>
        <mxCell id="OCMjePUxQbX9PJXSKdty-2" value="" style="shape=hexagon;perimeter=hexagonPerimeter2;whiteSpace=wrap;html=1;fixedSize=1;fillColor=#f8cecc;strokeColor=#b85450;" vertex="1" parent="1">
          <mxGeometry x="270" y="410" width="120" height="80" as="geometry" />
        </mxCell>
      </root>
    </mxGraphModel>
  </diagram>
</mxfile>
